<?xml version="1.0" encoding="utf-8"?>
<!-- Generator: Adobe Illustrator 21.1.0, SVG Export Plug-In . SVG Version: 6.00 Build 0)  -->
<svg version="1.1" id="Layer_1" xmlns="http://www.w3.org/2000/svg" xmlns:xlink="http://www.w3.org/1999/xlink" x="0px" y="0px"
	 viewBox="0 0 292.9 338.2" style="enable-background:new 0 0 292.9 338.2;" xml:space="preserve">
<style type="text/css">
	.st0{fill:#FE9E2C;}
	.st1{fill:#F18221;}
	.st2{fill:#6D3203;}
</style>
<g>
	<polygon class="st0" points="0,84.5 0,253.6 146.4,338.2 292.9,253.6 292.9,84.5 146.4,0 	"/>
	<polygon class="st1" points="146.5,0 292.9,84.5 292.9,253.6 146.5,338.2 	"/>
</g>
<g>
	<path class="st2" d="M95.4,192H62.5v-13l31.1-48.6h14.8v49.8h11.2V192h-11.2v15.7H95.4V192z M95.4,149h-0.2l-19.3,31.2h19.5V149z"
		/>
	<path class="st2" d="M155.7,129.2c8.6,0,27.9,3.4,27.9,39.9S164.3,209,155.7,209c-8.6,0-27.9-3.4-27.9-39.9
		S147.1,129.2,155.7,129.2z M155.7,196.6c13.1,0,14.8-17.9,14.8-27.5s-1.7-27.5-14.8-27.5c-13.1,0-14.8,17.9-14.8,27.5
		S142.6,196.6,155.7,196.6z"/>
	<path class="st2" d="M217.3,145.5L202.7,159l-7.6-9.1l23.4-19.4h11.9v77.3h-13.1V145.5z"/>
</g>
</svg>
